<svg width="640" height="640" viewBox="0 0 640 640" fill="none" xmlns="http://www.w3.org/2000/svg">
<path d="M640 0H0V640H640V0Z" fill="#4FBE95"/>
<g clip-path="url(#clip0_21_596)">
<path d="M0.229724 626.633L0.386917 613.441L4.21986 625.436C8.93547 640.199 8.93549 639.83 4.06873 639.83C0.11487 639.83 0.072537 639.685 0.229724 626.633ZM68.848 629.432C25.1802 532.109 21.057 424.454 57.6272 336.58C80.0748 282.653 123.029 233.816 169.025 209.936C184.278 202.022 210.691 192.911 226.077 190.269C240.907 187.718 279.334 189.139 292.791 192.736C317.615 199.368 342.541 214.814 356.742 232.365C383.168 265.024 386.094 304.84 363.961 330.692C348.557 348.69 321.841 350.509 310.789 334.313C306.346 327.808 306.243 324.06 310.39 319.918C312.809 317.494 313.014 316.714 311.243 316.714C304.889 316.714 303.855 329.416 309.532 337.771C318.419 350.854 337.529 354.076 354.874 345.407C390.652 327.53 399.479 275.489 374.081 232.214C366.845 219.875 342.366 195.734 329.585 188.322C286.105 163.106 230.721 158.977 176.654 176.908C169.708 179.212 157.012 184.556 148.433 188.776C82.094 221.428 31.3528 283.227 2.0011 367.105C0.761738 370.653 0.290178 358.538 0.193447 320.613L0.0664888 269.322L13.4455 252.63C50.8138 205.988 101.67 169.454 153.306 152.157C181.122 142.835 197.82 140.157 228.81 140.054C267.297 139.927 287.538 144.401 319.187 160.023C364.021 182.156 394.395 221.888 399.872 265.574C405.404 309.683 381.983 348.206 345.419 355.14C330.679 357.933 313.945 351.422 307.132 340.244C302.785 333.116 302.942 321.684 307.464 315.928C310.813 311.672 310.82 311.575 307.682 313.25C299.315 317.73 298.764 334.815 306.624 346.005C309.326 349.844 314.489 354.215 319.162 356.621C326.133 360.201 329.096 360.708 343.146 360.708C358.296 360.708 359.717 360.412 369.051 355.346C390.133 343.914 406.625 320.559 412.145 294.321C415.186 279.89 414.315 252.207 410.367 237.54C406.933 224.814 393.851 198.122 385.659 187.149C357.625 149.612 313.286 123.301 259.8 112.474C248.761 110.237 238.139 109.608 212.015 109.644C181.261 109.686 176.763 110.061 158.789 114.094C106.343 125.871 56.938 150.513 14.8602 185.892L0 198.382L0.870581 133.93L17.6654 123.785C153.197 41.8965 318.177 59.9186 396.849 165.21C413.07 186.92 424.254 212.324 428.77 237.752C431.709 254.262 430.094 285.555 425.572 299.919C417.344 326.024 398.343 351.053 379.547 360.533C347.009 376.947 310.68 368.949 299.835 342.982C293.487 327.79 300.27 310.813 313.703 308.286C316.932 307.676 316.732 307.519 312.512 307.337C305.693 307.047 298.577 313.238 295.016 322.554C287.544 342.112 303.722 367.038 329.174 375.182C335.474 377.195 341.664 377.715 354.01 377.255C369.432 376.687 371.282 376.24 384.008 370.031C413.559 355.618 433.335 330.927 444.054 295.065C450.287 274.219 451.254 242.739 446.393 219.143C427.023 125.145 342.239 52.9539 229.058 34.0975C204.881 30.0711 145.694 30.0711 120.037 34.0975C82.9525 39.9195 42.8577 51.7207 13.5906 65.4383L0.0664888 71.7741V6.65631L10.1567 3.30096C20.12 -0.0120595 21.9034 -0.0483372 149.721 0.368813L279.195 0.79805L298.504 9.23173C339.149 26.9697 368.096 46.4428 397.677 75.9275C433.419 111.561 454.235 147.375 466.513 194.38C472.638 217.819 473.629 253.277 468.817 276.601C457.245 332.656 422.459 373.815 376.79 385.496C356.754 390.616 335.891 388.815 319.707 380.556C309.701 375.454 298.13 363.725 293.221 353.707C285.047 337.033 288.747 316.291 301.255 308.661C307.422 304.901 318.739 304.49 321.587 307.918C322.681 309.242 324.567 310.318 325.776 310.318C327.82 310.318 328.848 315.402 328.044 321.514C327.796 323.431 328.322 323.34 330.655 321.061C332.578 319.181 333.581 315.886 333.581 311.46C333.575 293.263 311.315 282.919 288.68 290.597C278.886 293.922 263.047 309.26 257.841 320.481C246.609 344.651 249.776 378.658 265.797 405.833C273.977 419.708 296.129 441.327 311.067 450.015C376.753 488.187 467.311 476.138 537.495 419.877C551.225 408.868 576.097 382.92 587.312 367.903C605.4 343.684 623.12 310.662 633.652 281.559L639.74 264.727L639.903 368.241L634.758 374.873C584.216 440.033 522.581 480.83 453.914 494.583C429.381 499.499 390.308 499.571 367.975 494.747C313.83 483.048 271.771 452.627 251.227 410.295C242.528 392.369 239.487 379.68 239.354 360.708C239.16 334.259 246.687 314.876 263.228 299.236C277.538 285.7 296.165 279.346 310.499 283.106C325.577 287.06 335.963 297.622 335.976 309.012C335.988 317.899 333.394 323.008 327.596 325.523C324.265 326.968 323.455 327.814 325.341 327.85C326.973 327.886 330.752 325.468 333.739 322.476C338.237 317.984 339.18 315.844 339.18 310.185C339.18 294.248 325.758 280.343 306.684 276.51C289.091 272.98 268.343 280.972 251.657 297.706C233.616 315.807 225.612 337.378 225.612 367.903C225.612 431.443 273.778 490.956 345.769 516.36C373.719 526.226 389.359 528.651 424.756 528.633C451.75 528.614 459.627 528.028 475.147 524.914C530.017 513.893 581.792 488.713 625.907 451.587L639.903 439.81V503.652L626.324 511.856C554.756 555.082 473.2 573.522 400.767 562.845C321.387 551.141 254.504 505.466 224.796 442.657C199.864 389.957 204.634 332.221 236.827 297.09C255.756 276.432 274.231 267.913 297.592 269.08C312.41 269.818 320.214 272.81 330.232 281.607C347.843 297.072 345.782 324.12 326.593 329.235C320.861 330.764 320.849 330.782 325.583 330.94C328.225 331.03 332.687 329.694 335.504 327.977C342.741 323.564 346.048 316.267 345.89 305.058C345.461 274.715 311.636 253.833 275.198 261.414C236.053 269.552 206.193 301.521 194.332 347.994C187.023 376.614 189.64 417.556 200.643 446.78C216.949 490.079 247.316 527.52 290.512 557.585C318.032 576.744 358.883 593.636 395.967 601.187C466.84 615.624 543.499 606.912 617.492 576.018L639.903 566.666V631.385L615.049 639.83H369.432L353.907 634.033C271.154 603.121 202.935 536.667 178.577 463.243C164.998 422.314 164.17 375.871 176.37 339.911C191.69 294.756 226.688 260.036 265.096 251.899C293.015 245.986 316.787 251.627 334.76 268.439C345.407 278.397 349.113 286.105 350.032 300.197C350.654 309.749 350.195 312.887 347.269 318.933C343.001 327.753 335.589 332.711 326.689 332.711C320.112 332.711 318.062 331.199 317.21 325.698C316.793 323.038 317.071 322.947 319.562 324.9C322.119 326.907 322.179 326.853 320.202 324.332C317.76 321.212 314.501 322.216 315.825 325.674C316.297 326.907 315.831 327.917 314.779 327.917C310.197 327.917 320.13 334.627 325.746 335.335C335.516 336.556 344.984 330.788 351.059 319.918C355.346 312.246 355.968 309.58 355.938 299.121C355.902 289.116 355.146 285.688 351.374 278.457C342.082 260.653 323.388 245.883 303.401 240.563C291.165 237.304 265.278 237.734 250.81 241.433C222.154 248.761 194.574 269.328 174.55 298.293C107.147 395.791 144.902 542.804 260.544 633.156L269.086 639.83H199.017L187.119 625.345C161.159 593.738 137.333 551.485 125.659 516.366C87.4021 401.305 125.266 281.589 213.611 238.272C236.591 227.009 246.143 224.796 272 224.766C290.518 224.741 295.264 225.286 305.312 228.58C343.001 240.926 368.036 275.489 361.803 306.557C358.109 324.954 344.754 337.977 329.355 338.2C323.068 338.291 320.964 337.511 316.811 333.539C313.026 329.912 312.029 327.796 312.663 324.737L313.504 320.716L311.63 324.477C307.785 332.185 316.569 340.383 330.28 341.882C339.023 342.837 352.474 335.794 359.505 326.575C372.068 310.1 372.939 281.456 361.543 259.087C348.012 232.51 312.809 211.961 272.454 207.07C253.754 204.809 217.299 212.711 195.003 223.859C175.705 233.514 163.686 242.443 145.537 260.616C107.522 298.68 84.1254 348.345 76.931 406.25C74.5551 425.385 74.8936 466.568 77.5839 485.473C84.9476 537.236 103.774 588.999 130.671 631.433L135.991 639.83H73.5152L68.848 629.432ZM324.15 312.718C322.482 311.454 320.486 310.807 319.725 311.279C317.415 312.706 319.936 315.118 323.679 315.064C327.07 315.015 327.082 314.943 324.15 312.718ZM354.403 446.829C311.466 437.627 278.052 410.664 265.392 374.994C259.063 357.154 259.897 334.222 267.418 319.483C278.3 298.16 301.92 287.036 319.066 295.173C327.487 299.17 331.23 304.653 330.927 312.536C330.68 318.794 330.637 318.848 330.008 313.679C329.114 306.364 325.686 301.515 319.247 298.462C307.924 293.082 295.349 296.479 283.699 308.057C272.847 318.842 269.757 328.642 270.694 349.342C271.438 365.805 275.561 376.941 286.002 390.628C298.42 406.909 323.721 421.975 348.623 427.924C377.116 434.725 414.696 429.266 445.553 413.844C502.316 385.471 547.471 319.948 560.765 246.669C564.326 227.039 565.578 185.306 563.274 163.082C557.851 110.793 539.799 58.1351 510.26 8.39742L505.272 0L536.196 0.00604234L567.119 0.0120847L574.072 16.4019C595.921 67.9109 606.307 118.199 606.307 172.477C606.307 213.527 602.087 242.268 590.897 277.46C583.569 300.506 565.946 336.006 552.35 355.104C539.061 373.773 510.453 402.629 494.13 413.838C470.31 430.191 440.946 442.73 415.96 447.216C400.205 450.045 368.489 449.846 354.403 446.829ZM346.362 412.768C316.859 406.432 292.858 388.549 281.861 364.704C278.505 357.438 277.786 353.405 277.701 341.513C277.605 328.267 277.992 326.411 282.562 318.316C288.898 307.089 297.93 300.524 308.45 299.514C315.577 298.831 316.847 299.236 321.756 303.788L327.185 308.812L321.109 305.366C316.527 302.761 313.425 302.138 308.456 302.803C300.058 303.927 294.817 307.863 288.795 317.542C284.497 324.459 283.995 326.605 283.995 338.182C283.995 354.548 287.913 363.199 301.545 376.905C319.15 394.6 336.84 400.839 365.787 399.546C397.327 398.143 421.237 386.765 447.252 360.787C469.506 338.563 483.792 313.02 491.947 280.845C515.985 186.073 473.019 80.3469 379.946 5.2537L373.573 0.108854L441.563 0L447.506 6.57771C458.261 18.4816 472.916 38.8857 484.227 57.7119C529.503 133.059 540.863 217.069 515.918 292.181C502.582 332.33 478.901 365.097 447.149 387.327C420.851 405.748 400.688 412.792 371.971 413.602C361.416 413.898 349.893 413.523 346.362 412.768ZM635.979 15.5978C634.413 10.0963 632.769 4.34082 632.328 2.79917C631.711 0.640871 632.491 0 635.713 0C639.879 0 639.903 0.0604825 639.903 12.7987C639.903 19.8358 639.661 25.5913 639.365 25.5913C639.069 25.5913 637.545 21.0933 635.979 15.5978Z" fill="#9BCD72"/>
<path fill-rule="evenodd" clip-rule="evenodd" d="M112.96 448.32L121.084 470.276L143.04 478.4L121.084 486.524L112.96 508.48L104.835 486.524L82.8799 478.4L104.835 470.276L112.96 448.32Z" fill="#CBE194"/>
<path fill-rule="evenodd" clip-rule="evenodd" d="M320 522.24L326.914 540.926L345.6 547.84L326.914 554.754L320 573.44L313.085 554.754L294.4 547.84L313.085 540.926L320 522.24Z" fill="#CBE194"/>
<path fill-rule="evenodd" clip-rule="evenodd" d="M236.8 303.04L241.986 317.054L256 322.24L241.986 327.426L236.8 341.44L231.614 327.426L217.6 322.24L231.614 317.054L236.8 303.04Z" fill="#CBE194"/>
<path fill-rule="evenodd" clip-rule="evenodd" d="M535.36 128.96L542.274 147.646L560.96 154.56L542.274 161.474L535.36 180.16L528.445 161.474L509.76 154.56L528.445 147.646L535.36 128.96Z" fill="#CBE194"/>
<path fill-rule="evenodd" clip-rule="evenodd" d="M69.2801 232.64L81.0774 264.523L112.96 276.32L81.0774 288.117L69.2801 320L57.4818 288.117L25.6001 276.32L57.4818 264.523L69.2801 232.64Z" fill="#CBE194"/>
<path d="M217.6 109.44C232.446 109.44 244.48 97.4055 244.48 82.5601C244.48 67.7146 232.446 55.6801 217.6 55.6801C202.755 55.6801 190.72 67.7146 190.72 82.5601C190.72 97.4055 202.755 109.44 217.6 109.44Z" fill="#CBE194"/>
<path d="M459.68 411.84C471.786 411.84 481.6 402.026 481.6 389.92C481.6 377.814 471.786 368 459.68 368C447.574 368 437.76 377.814 437.76 389.92C437.76 402.026 447.574 411.84 459.68 411.84Z" fill="#CBE194"/>
<path d="M589.44 460.8C598.276 460.8 605.44 453.637 605.44 444.8C605.44 435.963 598.276 428.8 589.44 428.8C580.603 428.8 573.44 435.963 573.44 444.8C573.44 453.637 580.603 460.8 589.44 460.8Z" fill="#CBE194"/>
</g>
<defs>
<clipPath id="clip0_21_596">
<rect width="640" height="640" fill="white"/>
</clipPath>
</defs>
</svg>
