<?xml version="1.0" encoding="utf-8"?>
<!-- Generator: Adobe Illustrator 18.0.0, SVG Export Plug-In . SVG Version: 6.00 Build 0)  -->
<!DOCTYPE svg PUBLIC "-//W3C//DTD SVG 1.1//EN" "http://www.w3.org/Graphics/SVG/1.1/DTD/svg11.dtd">
<svg version="1.1" id="Layer_1" xmlns="http://www.w3.org/2000/svg" xmlns:xlink="http://www.w3.org/1999/xlink" x="0px" y="0px"
	 viewBox="0 -14 2884.6 325" enable-background="new 0 -14 2884.6 325" xml:space="preserve">
<g>
	<g>
		<g>
			<path fill="#FFFFFF" d="M398.3,220.4c4.5,0,8.4-0.3,11.7-1c3.3-0.7,6.2-1.6,8.6-2.7c2.5-1.1,4.6-2.2,6.3-3.5
				c1.7-1.2,3.2-2.4,4.5-3.5c1.4-1.1,2.6-2,3.6-2.7c1.1-0.7,2.2-1,3.4-1c1.1,0,2,0.2,2.7,0.6c0.8,0.4,1.4,0.8,1.7,1.3l11.7,14.4
				c-7.3,8.5-15.9,15-25.9,19.5s-21.3,6.7-34.1,6.7c-10.4,0-19.7-1.9-27.9-5.6c-8.1-3.7-15-8.8-20.5-15.3
				c-5.6-6.6-9.8-14.3-12.8-23.2c-2.9-9-4.3-18.7-4.3-29.3c0-9.7,1-18.8,3.1-27.4c2.2-8.7,5.2-16.6,9-23.9c3.9-7.4,8.5-14,13.9-19.9
				c5.5-5.9,11.6-10.8,18.2-14.9c6.7-4.1,13.9-7.2,21.6-9.4c7.7-2.2,15.7-3.4,24-3.4c6.2,0,11.8,0.6,16.9,1.7
				c5.1,1.2,9.7,2.8,13.9,4.9c4.2,2,7.9,4.5,11.1,7.4c3.3,2.9,6.3,6,8.8,9.5l-11.7,13.8c-0.9,1-1.9,1.9-3,2.7
				c-1.1,0.8-2.5,1.2-4.3,1.2c-1.8,0-3.4-0.7-5-2c-1.5-1.4-3.4-2.9-5.7-4.4c-2.2-1.6-5.1-3.1-8.7-4.4c-3.6-1.4-8.2-2.1-14-2.1
				c-7.7,0-14.8,1.6-21.3,4.8c-6.6,3.2-12.3,7.7-17.2,13.6c-4.8,5.8-8.6,12.9-11.4,21.3c-2.7,8.4-4.1,17.7-4.1,28.1
				c0,7.6,0.9,14.4,2.8,20.3c1.9,5.9,4.4,10.9,7.8,15.1c3.3,4.1,7.2,7.2,11.7,9.4C388.1,219.3,393,220.4,398.3,220.4z"/>
			<path fill="#FFFFFF" d="M510,145c5.6-6.8,11.7-11.8,18.1-15.1c6.5-3.3,13.1-4.9,19.9-4.9c5,0,9.5,1,13.6,3c4.1,2,7.5,5,10.1,8.8
				c2.7,3.9,4.6,8.6,5.7,14.3c1.1,5.7,1.2,12.1,0.2,19.4l-9,76.1h-31.9l8.9-76.1c0.9-7.2,0.6-12.3-1-15.3c-1.6-3.1-4.6-4.6-8.8-4.6
				c-2.7,0-5.5,0.8-8.5,2.3c-2.9,1.5-5.7,3.8-8.5,6.7c-2.7,2.9-5.2,6.3-7.5,10.5c-2.3,4-4.3,8.6-5.9,13.6l-7.7,62.9h-32l21-173.1h32
				L510,145z"/>
			<path fill="#FFFFFF" d="M655.2,147.2c-3.4,0-6.6,0.7-9.6,2.2c-3,1.4-5.8,3.4-8.2,6c-2.4,2.6-4.5,5.7-6.4,9.3
				c-1.9,3.6-3.4,7.7-4.5,12.2c8.6-1.2,15.5-2.6,20.8-3.9c5.3-1.5,9.4-3,12.3-4.6c2.9-1.7,4.9-3.5,5.8-5.5c1-1.9,1.5-4,1.5-6.3
				c0-1.1-0.2-2.2-0.7-3.3c-0.5-1.2-1.2-2.2-2.1-3c-0.9-0.9-2.1-1.7-3.6-2.2C659,147.5,657.2,147.2,655.2,147.2z M623.9,197.5
				c0,17.7,7.5,26.6,22.4,26.6c4.9,0,9-0.6,12.1-1.9c3.2-1.3,5.9-2.7,8.1-4.2c2.2-1.5,4.3-2.9,6.1-4.2c1.9-1.3,4.1-2,6.6-2
				c1.1,0,2.1,0.3,3,0.8c1,0.5,1.9,1.1,2.7,2l8.1,9.8c-4.2,4.2-8.2,7.8-12.2,10.8c-3.9,2.9-8,5.4-12.3,7.4
				c-4.3,1.9-8.7,3.4-13.3,4.3c-4.6,0.9-9.7,1.4-15.3,1.4c-7,0-13.4-1.2-19.2-3.6c-5.8-2.4-10.8-5.8-15-10.1
				c-4.1-4.4-7.3-9.7-9.6-15.8c-2.2-6.2-3.4-13.1-3.4-20.7c0-6.3,0.7-12.5,2.1-18.6c1.4-6,3.4-11.8,6-17.2
				c2.6-5.4,5.8-10.4,9.5-14.9c3.8-4.6,8.1-8.5,12.9-11.7c4.8-3.3,10-5.9,15.7-7.8c5.7-1.9,11.8-2.8,18.2-2.8
				c6.3,0,11.8,0.9,16.6,2.8c4.9,1.8,8.9,4.1,12.2,7.1c3.2,2.9,5.7,6.1,7.3,9.6c1.7,3.6,2.5,7.1,2.5,10.7c0,5.3-1.1,10.3-3.2,14.7
				c-2.2,4.5-6,8.5-11.4,12.1c-5.4,3.5-12.8,6.5-22,9.1c-9.3,2.5-21,4.4-35.1,5.8V197.5z"/>
			<path fill="#FFFFFF" d="M786.7,150.6c-0.9,1.3-1.9,2.3-2.8,2.9c-0.9,0.5-1.9,0.8-3.2,0.8c-1.5,0-2.9-0.4-4.4-1.2
				c-1.4-0.8-3-1.6-4.8-2.4c-1.8-0.9-3.8-1.8-6.1-2.6c-2.2-0.8-4.9-1.2-8-1.2c-5.8,0-10.1,1.2-13,3.7c-2.8,2.5-4.2,5.6-4.2,9.3
				c0,3,1.1,5.5,3.4,7.3c2.2,1.8,5.1,3.4,8.5,4.9c3.4,1.4,7.1,2.8,11,4.3c3.9,1.5,7.6,3.4,11,5.7c3.4,2.3,6.2,5.3,8.5,8.9
				c2.2,3.6,3.4,8.3,3.4,13.9c0,5.9-1.2,11.5-3.5,16.7c-2.3,5.3-5.7,9.9-10.1,13.8c-4.3,3.9-9.6,7.1-15.8,9.4
				c-6.2,2.3-13.1,3.5-20.8,3.5c-3.8,0-7.5-0.4-11.1-1.2c-3.6-0.7-7-1.7-10.2-3c-3.2-1.4-6.1-3-8.7-4.8c-2.5-1.8-4.7-3.7-6.5-5.8
				l7.9-12c0.9-1.4,2-2.5,3.4-3.3c1.3-0.8,2.9-1.2,4.8-1.2c1.7,0,3.2,0.5,4.6,1.5c1.4,0.9,2.9,2,4.6,3.1c1.7,1.1,3.7,2.1,6,3.1
				c2.4,0.9,5.5,1.4,9.3,1.4c2.9,0,5.4-0.3,7.5-1c2.2-0.8,4.1-1.8,5.6-3c1.5-1.3,2.7-2.8,3.4-4.5c0.8-1.7,1.2-3.5,1.2-5.3
				c0-3.4-1.1-6-3.4-7.9c-2.2-1.9-5.1-3.5-8.5-4.9c-3.3-1.4-7-2.7-10.9-4.1c-3.9-1.3-7.6-3.1-11-5.3c-3.3-2.2-6.1-5.1-8.3-8.7
				c-2.2-3.6-3.4-8.3-3.4-14.3c0-5.4,1-10.6,3-15.7c2.1-5.1,5.1-9.6,9-13.6c3.9-3.9,8.8-7.1,14.6-9.5c5.9-2.4,12.6-3.6,20.3-3.6
				c7.8,0,14.7,1.4,20.8,4.1c6.1,2.6,11.2,6,15.2,10.1L786.7,150.6z"/>
			<path fill="#FFFFFF" d="M881.2,150.6c-0.9,1.3-1.9,2.3-2.8,2.9c-0.8,0.5-1.9,0.8-3.2,0.8c-1.5,0-2.9-0.4-4.4-1.2
				c-1.4-0.8-3-1.6-4.8-2.4c-1.8-0.9-3.8-1.8-6.1-2.6c-2.2-0.8-4.9-1.2-8-1.2c-5.8,0-10.1,1.2-13,3.7c-2.8,2.5-4.2,5.6-4.2,9.3
				c0,3,1.1,5.5,3.4,7.3c2.2,1.8,5.1,3.4,8.5,4.9c3.4,1.4,7.1,2.8,11,4.3c3.9,1.5,7.6,3.4,11,5.7c3.4,2.3,6.2,5.3,8.5,8.9
				c2.2,3.6,3.4,8.3,3.4,13.9c0,5.9-1.2,11.5-3.5,16.7c-2.3,5.3-5.7,9.9-10.1,13.8c-4.3,3.9-9.6,7.1-15.8,9.4
				c-6.2,2.3-13.1,3.5-20.8,3.5c-3.8,0-7.5-0.4-11.1-1.2c-3.6-0.7-7-1.7-10.2-3c-3.2-1.4-6.1-3-8.7-4.8c-2.6-1.8-4.7-3.7-6.5-5.8
				l7.9-12c0.9-1.4,2-2.5,3.4-3.3c1.3-0.8,2.9-1.2,4.8-1.2c1.7,0,3.2,0.5,4.6,1.5c1.4,0.9,2.9,2,4.6,3.1c1.7,1.1,3.7,2.1,6,3.1
				c2.4,0.9,5.5,1.4,9.3,1.4c2.9,0,5.4-0.3,7.5-1c2.2-0.8,4.1-1.8,5.6-3c1.5-1.3,2.7-2.8,3.4-4.5c0.8-1.7,1.2-3.5,1.2-5.3
				c0-3.4-1.1-6-3.4-7.9c-2.2-1.9-5.1-3.5-8.5-4.9c-3.3-1.4-7-2.7-10.9-4.1c-3.9-1.3-7.6-3.1-11-5.3c-3.3-2.2-6.1-5.1-8.3-8.7
				c-2.2-3.6-3.4-8.3-3.4-14.3c0-5.4,1-10.6,3-15.7c2.1-5.1,5.1-9.6,9-13.6c3.9-3.9,8.8-7.1,14.6-9.5c5.9-2.4,12.6-3.6,20.3-3.6
				c7.8,0,14.7,1.4,20.8,4.1c6.1,2.6,11.2,6,15.2,10.1L881.2,150.6z"/>
			<path fill="#FFFFFF" d="M935.8,153.6c3-5.6,6.2-10.3,9.5-14.3c3.4-3.9,6.9-7,10.5-9.2c3.6-2.2,7.3-3.5,11.1-3.8
				c3.8-0.4,7.6,0.3,11.5,2l-5.8,30.1c-4.6-1.9-8.8-2.7-12.9-2.4c-3.9,0.3-7.6,1.9-11,4.6c-3.3,2.8-6.3,6.9-9,12.2
				c-2.7,5.3-5.1,12.1-7.1,20.2l-6.5,53.6h-31.4l14.5-119.8h16.5c3.3,0,5.9,0.8,7.8,2.4c1.9,1.6,2.8,4.2,2.8,7.8L935.8,153.6z"/>
			<path fill="#FFFFFF" d="M1025.8,224.3c4.5,0,8.5-1.3,12.1-3.9c3.6-2.6,6.6-6.2,9.1-10.6c2.5-4.5,4.4-9.7,5.7-15.6
				c1.4-5.9,2.1-12.1,2.1-18.7c0-9.3-1.4-16-4.3-20.1c-2.9-4.2-7.3-6.3-13.3-6.3c-4.4,0-8.4,1.3-12.1,3.9c-3.5,2.6-6.6,6-9,10.5
				c-2.5,4.4-4.4,9.6-5.8,15.6c-1.3,5.9-2,12.1-2,18.7c0,9.1,1.4,15.8,4.3,20.1C1015.3,222.2,1019.8,224.3,1025.8,224.3z
				 M1023,248.4c-6.6,0-12.8-1.1-18.6-3.3c-5.7-2.2-10.7-5.5-14.8-9.8c-4.2-4.3-7.5-9.5-9.9-15.8c-2.3-6.3-3.5-13.4-3.5-21.5
				c0-10.5,1.7-20.1,5.1-29c3.4-9,8-16.7,13.8-23.2c5.8-6.5,12.6-11.6,20.3-15.2c7.7-3.7,15.9-5.6,24.5-5.6c6.7,0,12.8,1.1,18.4,3.4
				c5.7,2.2,10.7,5.4,14.8,9.8c4.2,4.3,7.5,9.5,9.9,15.8c2.4,6.3,3.6,13.4,3.6,21.5c0,10.4-1.7,20-5.1,28.9
				c-3.4,8.9-8,16.6-13.9,23.1c-5.8,6.5-12.6,11.6-20.3,15.3C1039.7,246.5,1031.6,248.4,1023,248.4z"/>
			<path fill="#FFFFFF" d="M1213.6,126.9l-14.5,119.7h-16.2c-7.6,0-11.4-3.6-11.4-10.8l0.3-10.8c-5.9,7.9-12.3,13.8-19.3,17.7
				c-6.9,3.8-14,5.7-21.4,5.7c-5,0-9.5-1-13.6-3c-4-2-7.3-5-10-8.8s-4.5-8.6-5.6-14.2c-1.1-5.7-1.2-12.1-0.2-19.4l8.9-76.1h32
				l-9,76.1c-0.8,7.2-0.5,12.3,1,15.3c1.6,2.9,4.5,4.4,8.7,4.4c2.8,0,5.7-0.8,8.6-2.3c3-1.6,5.9-3.9,8.6-6.9
				c2.8-2.9,5.3-6.5,7.7-10.6c2.4-4.2,4.4-8.8,5.9-13.9l7.5-62.1H1213.6z"/>
			<path fill="#FFFFFF" d="M1224.3,246.6l21-173.1h31.5l-21.1,173.1H1224.3z"/>
			<path fill="#FFFFFF" d="M1343.6,147.2c-3.4,0-6.6,0.7-9.6,2.2c-3,1.4-5.8,3.4-8.2,6c-2.4,2.6-4.5,5.7-6.4,9.3
				c-1.8,3.6-3.4,7.7-4.5,12.2c8.6-1.2,15.5-2.6,20.8-3.9c5.3-1.5,9.4-3,12.3-4.6c2.9-1.7,4.9-3.5,5.8-5.5c1-1.9,1.5-4,1.5-6.3
				c0-1.1-0.2-2.2-0.7-3.3c-0.5-1.2-1.2-2.2-2.1-3c-0.9-0.9-2.1-1.7-3.6-2.2C1347.3,147.5,1345.6,147.2,1343.6,147.2z M1312.3,197.5
				c0,17.7,7.5,26.6,22.4,26.6c4.9,0,9-0.6,12-1.9c3.2-1.3,5.9-2.7,8.1-4.2c2.2-1.5,4.3-2.9,6.1-4.2c1.9-1.3,4.1-2,6.6-2
				c1.1,0,2.1,0.3,3,0.8c1,0.5,1.9,1.1,2.7,2l8.1,9.8c-4.2,4.2-8.2,7.8-12.2,10.8c-3.9,2.9-8,5.4-12.3,7.4
				c-4.3,1.9-8.7,3.4-13.3,4.3c-4.6,0.9-9.7,1.4-15.3,1.4c-7,0-13.5-1.2-19.2-3.6c-5.8-2.4-10.8-5.8-15-10.1
				c-4.1-4.4-7.3-9.7-9.6-15.8c-2.2-6.2-3.4-13.1-3.4-20.7c0-6.3,0.7-12.5,2.1-18.6c1.4-6,3.4-11.8,6-17.2
				c2.6-5.4,5.8-10.4,9.5-14.9c3.8-4.6,8.1-8.5,12.9-11.7c4.8-3.3,10-5.9,15.7-7.8c5.7-1.9,11.8-2.8,18.2-2.8
				c6.3,0,11.8,0.9,16.6,2.8c4.9,1.8,8.9,4.1,12.2,7.1c3.3,2.9,5.7,6.1,7.3,9.6c1.7,3.6,2.6,7.1,2.6,10.7c0,5.3-1.1,10.3-3.3,14.7
				c-2.2,4.5-6,8.5-11.4,12.1c-5.4,3.5-12.8,6.5-22,9.1c-9.3,2.5-21,4.4-35.1,5.8V197.5z"/>
			<path fill="#FFFFFF" d="M1403.5,221.5c0-0.5,0-1.2,0-1.9c0-0.8,0-1.9,0.1-3.3c0.2-1.5,0.3-3.4,0.6-5.7c0.3-2.4,0.7-5.5,1.2-9.3
				l6.5-52h-10c-1.6,0-2.9-0.5-3.9-1.5c-1-1.1-1.4-2.7-1.2-4.8l1.6-12.1l17.6-3.4l10-31.4c1.2-3.5,3.6-5.2,7.1-5.2h17.3l-4.6,36.7
				h41.8l10-31.5c1.2-3.5,3.6-5.2,7.2-5.2h17.2l-4.5,36.7h27.6l-2.8,21.6h-27.5l-6.2,50.3c-0.4,3.2-0.7,5.7-0.9,7.5
				c-0.2,1.9-0.4,3.3-0.6,4.3c-0.1,1-0.2,1.7-0.2,2.1c0,0.3,0,0.5,0,0.7c0,2.7,0.6,4.9,1.9,6.5c1.3,1.5,3.2,2.3,5.7,2.3
				c1.4,0,2.6-0.2,3.6-0.5c1-0.4,1.9-0.8,2.5-1.2c0.8-0.5,1.5-0.9,2.1-1.2c0.6-0.4,1.3-0.6,2-0.6c0.9,0,1.7,0.2,2.2,0.7
				c0.5,0.4,1,1.1,1.4,2.1l7,15.3c-4.6,3.5-9.5,6.1-14.8,7.9c-5.3,1.8-10.6,2.7-16,2.7c-8.9,0-15.9-2.4-21-7.1
				c-5.1-4.8-7.8-11.4-8.1-19.9c0-0.5,0-1.2,0-1.9c0-0.8,0-1.9,0.1-3.3c0.2-1.5,0.3-3.4,0.6-5.7c0.3-2.4,0.7-5.5,1.2-9.3l6.4-52
				H1443l-6.1,50.3c-0.4,3.2-0.7,5.7-0.9,7.5c-0.2,1.9-0.4,3.3-0.6,4.3c-0.1,1-0.1,1.7-0.1,2.1c0,0.3,0,0.5,0,0.7
				c0,2.7,0.6,4.9,1.9,6.5c1.2,1.5,3.1,2.3,5.6,2.3c1.5,0,2.7-0.2,3.7-0.5c1-0.4,1.9-0.8,2.6-1.2c0.8-0.5,1.5-0.9,2.1-1.2
				c0.6-0.4,1.2-0.6,1.9-0.6c1,0,1.7,0.2,2.2,0.7c0.5,0.4,1,1.1,1.4,2.1l7,15.3c-4.5,3.5-9.4,6.1-14.7,7.9c-5.3,1.8-10.7,2.7-16,2.7
				c-8.9,0-15.9-2.4-21.1-7.1C1406.5,236.6,1403.8,230,1403.5,221.5z"/>
			<path fill="#FFFFFF" d="M1610.5,147.2c-3.4,0-6.6,0.7-9.6,2.2c-3,1.4-5.8,3.4-8.2,6c-2.4,2.6-4.5,5.7-6.4,9.3
				c-1.9,3.6-3.4,7.7-4.5,12.2c8.6-1.2,15.5-2.6,20.8-3.9c5.3-1.5,9.4-3,12.3-4.6c2.9-1.7,4.9-3.5,5.8-5.5c1-1.9,1.5-4,1.5-6.3
				c0-1.1-0.2-2.2-0.7-3.3c-0.5-1.2-1.2-2.2-2.1-3c-0.9-0.9-2.1-1.7-3.6-2.2C1614.3,147.5,1612.6,147.2,1610.5,147.2z M1579.2,197.5
				c0,17.7,7.5,26.6,22.4,26.6c5,0,9-0.6,12.1-1.9c3.2-1.3,5.9-2.7,8.1-4.2c2.3-1.5,4.3-2.9,6.2-4.2c1.9-1.3,4.1-2,6.6-2
				c1.1,0,2.1,0.3,3,0.8c1,0.5,1.9,1.1,2.7,2l8.1,9.8c-4.2,4.2-8.2,7.8-12.2,10.8c-3.9,2.9-8,5.4-12.3,7.4
				c-4.3,1.9-8.7,3.4-13.3,4.3s-9.7,1.4-15.3,1.4c-7,0-13.4-1.2-19.3-3.6c-5.8-2.4-10.8-5.8-14.9-10.1c-4.1-4.4-7.3-9.7-9.6-15.8
				c-2.2-6.2-3.4-13.1-3.4-20.7c0-6.3,0.7-12.5,2.1-18.6c1.4-6,3.4-11.8,6-17.2c2.6-5.4,5.8-10.4,9.5-14.9
				c3.8-4.6,8.1-8.5,12.9-11.7c4.8-3.3,10-5.9,15.6-7.8c5.7-1.9,11.8-2.8,18.2-2.8c6.3,0,11.8,0.9,16.6,2.8
				c4.9,1.8,8.9,4.1,12.2,7.1c3.2,2.9,5.7,6.1,7.3,9.6c1.7,3.6,2.6,7.1,2.6,10.7c0,5.3-1.1,10.3-3.3,14.7
				c-2.2,4.5-5.9,8.5-11.4,12.1c-5.4,3.5-12.8,6.5-22,9.1c-9.3,2.5-21,4.4-35.1,5.8V197.5z"/>
		</g>
		<g>
			<path fill="#FFFFFF" d="M224.7,36.1c0-2.4,0.1-4.8,0.4-7.1c0.4-3.4,1.1-6.7,2.1-10H62.6C28,19.1,0,47.1,0,81.7v221.9h221.9
				c34.6,0,62.6-28,62.6-62.6V95.9C251.5,95.9,224.7,69.1,224.7,36.1z M274.5,240.9c0,29.1-23.6,52.6-52.6,52.6H10V81.7
				C10,52.6,33.5,29,62.6,29h152.5c-0.2,2.3-0.4,4.7-0.4,7.1c0,35.1,26,64.2,59.7,69V240.9z"/>
			<circle fill="#FF32A1" cx="284.4" cy="36.1" r="42.7"/>
			<g>
				<path fill="#FFFFFF" d="M40.3,216c-0.8,1.8-0.5,3.3-0.3,3.8c0,0,0,0.1,0,0.1c0.4,2.3,2,7.4,5.5,11.3c0,0.2,0,0.4,0,0.7
					c0,1-0.1,2.4-0.1,3.2l-0.1,3h75.2c0.4,0.1,0.8,0.1,1.2,0.1c0.6,0,1.1,0,1.7-0.1h16.1l-0.1-3c0-0.6-0.1-1.6-0.1-2.5l0.6-0.2h-0.6
					c0-0.2,0-0.3,0-0.5c0-0.3,0-0.5,0-0.7c3.5-3.9,5.1-9,5.5-11.3c0,0,0-0.1,0-0.1c0.1-0.6,0.5-2-0.3-3.8c-1-2.1-2.7-3.3-3.9-4.1
					c-1.4-1-2.9-1.7-3.9-2c-8.2-3.7-13.1-6.4-15.9-8.2c-1.4-0.9-2.3-1.5-2.7-1.9c-0.2-0.1-0.3-0.2-0.4-0.3l0,0l-0.1-0.1
					c-3.9-4-7.1-10.8-9.4-18.1c-2.2-7.1-3.5-14.3-4.1-18.8v-1.8l0-0.2c-0.1-0.7,0.2-1.9,1.1-3.4c0.9-1.4,2-2.7,2.7-3.4
					c1.3-1.2,3.5-2.5,6-3.9c3.3-1.3,5.6-2.4,7.1-3.3c0.8-0.4,1.4-0.9,1.8-1.3c0.2-0.2,0.5-0.4,0.7-0.7c0.2-0.2,0.5-0.6,0.6-1.1
					c0.3-0.8,0.3-1.9,0.1-3.1l-0.1-0.5l-0.3-0.4c-1.2-2-3.2-2.6-4.4-2.6c-5.3-0.3-8.8-0.9-11.2-1.5c-0.7-0.2-1.3-0.3-1.7-0.5
					c3.2-1.8,5.7-4.3,7.5-6.8c2.4-3.2,3.9-6.5,4.6-8.6l0-0.1l0-0.1c2.6-12.3-1.1-20.9-7.1-26.5c-5.8-5.4-13.3-8-19.3-8
					c-6.1,0-13.4,2.7-19.2,8c-6,5.6-9.7,14.2-7.1,26.5l0,0.1l0,0.1c0.7,2.2,2.2,5.5,4.6,8.6c1.9,2.5,4.4,5,7.5,6.8
					c-0.5,0.2-1,0.3-1.7,0.5c-2.4,0.6-5.9,1.1-11.2,1.5c-1.2,0-3.2,0.6-4.4,2.6l-0.3,0.4l-0.1,0.5c-0.2,1.1-0.2,2.2,0.1,3.1
					c0.2,0.5,0.5,0.9,0.6,1.1c0.2,0.3,0.5,0.5,0.7,0.7c0.5,0.4,1.1,0.8,1.8,1.3c1.5,0.9,3.7,2,7,3.3c2.4,1.4,4.7,2.7,6,3.9
					c0.7,0.7,1.9,2,2.7,3.4c0.9,1.5,1.2,2.7,1.1,3.4l0,0.2v1.8c-0.5,4.5-1.8,11.6-4.1,18.8c-2.3,7.3-5.4,14.2-9.4,18.1l-0.1,0.1l0,0
					c-0.1,0.1-0.2,0.2-0.4,0.3c-0.5,0.4-1.3,1-2.7,1.9c-2.8,1.8-7.7,4.5-15.9,8.2c-1,0.4-2.5,1.1-3.9,2
					C43,212.7,41.3,213.9,40.3,216z"/>
				<path fill="#FFFFFF" d="M160,205.8l3.4-37.7l30,62.7c0.3,0.5,0.6,1.2,0.9,2c0.4,0.9,0.9,1.7,1.5,2.5c0.6,0.8,1.3,1.5,2.2,2
					c0.9,0.6,1.9,0.9,3.1,0.9c0.6,0,1.2-0.1,1.9-0.3c0.7-0.1,1.5-0.4,2.3-0.9c3.1-1.7,5.8-3.1,8.3-4.3c2.5-1.2,4.7-2.2,6.8-3.1
					c2-0.9,3.9-1.8,5.6-2.5c1.7-0.7,3.4-1.5,5-2.3c0.8-0.4,1.9-0.9,3.4-1.6c1.5-0.7,3.1-1.4,4.5-2.1c1.5-0.7,2.8-1.4,3.8-2.1
					c1.1-0.7,1.7-1.4,1.7-1.9c0-0.7-0.4-1.1-1.3-1.2c-0.9-0.1-1.9-0.2-3.2-0.2c-1.3-0.1-2.7-0.2-4.1-0.4c-1.5-0.3-2.8-0.9-3.9-1.9
					c-3.5-5.1-6.6-9.9-9.3-14.4c-2.7-4.5-5.1-8.5-7.2-12.1c-2-3.7-3.8-6.8-5.2-9.5c-1.5-2.7-2.8-4.8-3.8-6.4c-1-1.8-1.8-3.2-2.5-4.2
					c-0.6-1.1-1.1-1.9-1.4-2.4c-0.3-0.6-0.6-1-0.7-1.2c-0.1-0.2-0.1-0.4-0.1-0.5c0.7-0.3,1.9-0.8,3.8-1.7c1.9-0.9,4-2.2,6.4-3.7
					c2.5-1.5,5.1-3.4,7.8-5.5c2.7-2.2,5.1-4.7,7.4-7.5c2.3-2.9,4.1-6.1,5.5-9.6c1.5-3.5,2.2-7.4,2.2-11.6c0-7.6-1.6-13.8-4.7-18.8
					c-3.1-5-7.2-8.9-12.4-11.8c-5.1-2.9-11-5-17.6-6.2c-6.6-1.3-13.4-2-20.4-2.1c-6.2,0-12,0.2-17.5,0.7c-5.5,0.4-10.7,0.9-15.6,1.6
					c-4.6,0.6-9,1.3-13.1,2.1c4.8,5.6,7.3,13.5,5.1,24.4l0,0.1l0,0.1c-0.7,2.2-2.2,5.5-4.6,8.6c-1.9,2.5-4.4,5-7.5,6.8
					c0.5,0.2,1,0.3,1.7,0.5c2.4,0.6,5.9,1.1,11.2,1.5c1.2,0,3.2,0.6,4.4,2.6l0.3,0.4l0.1,0.5c0.2,1.1,0.2,2.2-0.1,3.1
					c-0.2,0.5-0.5,0.9-0.6,1.1c-0.2,0.3-0.5,0.5-0.7,0.7c-0.5,0.4-1.1,0.8-1.8,1.3c-1.5,0.9-3.7,2-7.1,3.3c-2.4,1.4-4.7,2.7-6,3.9
					c-0.7,0.7-1.9,2-2.7,3.4c-0.5,0.8-0.8,1.5-1,2.1l-0.1,1.5l0,0v1.8c0.5,4.5,1.8,11.6,4.1,18.8c2.3,7.3,5.4,14.2,9.4,18.1l0.1,0.1
					l0,0c0.1,0.1,0.2,0.2,0.4,0.3c0.5,0.4,1.3,1,2.7,1.9c2.8,1.8,7.7,4.5,15.9,8.2C157.5,204.5,158.8,205.1,160,205.8z M175.3,153.2
					c-3.7,1.7-7.3,2.6-10.7,2.6l4-42.4c1.2-0.1,2.6-0.3,4-0.6c1.5-0.3,3.3-0.5,5.5-0.5c11.7,0,17.5,4.8,17.5,14.5
					c0,3.5-1,7-2.9,10.5c-1.9,3.5-4.4,6.6-7.5,9.3C182.3,149.3,179,151.5,175.3,153.2z"/>
			</g>
		</g>
	</g>
	<g>
		<g>
			<path fill="#FFFFFF" d="M2318.7,149.5c0,27-18.4,48.8-48.8,48.8c-30.4,0-48.6-21.8-48.6-48.8c0-26.8,18.6-48.8,48.4-48.8
				S2318.7,122.7,2318.7,149.5z M2244.5,149.5c0,14.2,8.5,27.5,25.4,27.5c16.9,0,25.4-13.3,25.4-27.5c0-14.1-9.9-27.7-25.4-27.7
				C2253.2,121.8,2244.5,135.4,2244.5,149.5z"/>
			<path fill="#FFFFFF" d="M2354.6,102.6v49c0,14.2,7.8,25.1,22.6,25.1c14.2,0,23.9-12,23.9-26.2v-47.8h23v93.8h-20.7l-1.5-12.7
				c-9.7,9.5-18.6,14-31.7,14c-22.4,0-38.7-16.9-38.7-45.9v-49.2H2354.6z"/>
			<path fill="#FFFFFF" d="M2473.5,76.2v26.6h40.4v19.9h-40.6v40.4c0,8.9,4.9,13.3,12.2,13.3c3.6,0,7.8-1.1,11.2-2.8l6.5,19.7
				c-6.6,2.7-12.2,3.8-19.2,4c-20.3,0.8-33.6-10.8-33.6-34.2v-40.4h-17.5v-19.9h17.5V78.7L2473.5,76.2z"/>
			<path fill="#FFFFFF" d="M2512.8,235.3V102.6h21.6l1.5,12.9c7.2-10.4,19.7-15,30.4-15c28.9,0,48,21.5,48,49
				c0,27.3-17.3,49-47.3,49c-9.9,0-24.5-3-31.1-13.3v46.1L2512.8,235.3z M2591.2,149.5c0-14.6-9.9-26.6-26.6-26.6
				c-16.7,0-26.6,12-26.6,26.6c0,14.6,10.8,26.6,26.6,26.6C2580.4,176.1,2591.2,164.1,2591.2,149.5z"/>
			<path fill="#FFFFFF" d="M2720.7,149.5c0,27-18.4,48.8-48.8,48.8c-30.4,0-48.6-21.8-48.6-48.8c0-26.8,18.6-48.8,48.4-48.8
				C2701.5,100.7,2720.7,122.7,2720.7,149.5z M2646.5,149.5c0,14.2,8.5,27.5,25.4,27.5c16.9,0,25.4-13.3,25.4-27.5
				c0-14.1-9.9-27.7-25.4-27.7C2655.2,121.8,2646.5,135.4,2646.5,149.5z"/>
			<path fill="#FFFFFF" d="M2794,127.5c-6.6-6.3-14.2-8.4-23.2-8.4c-11,0-17.1,3.4-17.1,9.3c0,6.1,5.5,9.5,17.5,10.3
				c17.7,1.1,40.1,5.1,40.1,30c0,16.5-13.5,30.8-40.3,30.8c-14.8,0-29.6-2.5-43.3-16.7l11.4-16.5c6.6,7.4,21.8,12.9,32.3,13.1
				c8.7,0.2,16.9-4.4,16.9-11.2c0-6.5-5.3-9.1-18.6-9.9c-17.7-1.3-38.7-7.8-38.7-29c0-21.6,22.4-29.2,39.5-29.2
				c14.6,0,25.6,2.8,36.5,12.3L2794,127.5z"/>
			<path fill="#FFFFFF" d="M2854.9,76.2v26.6h25.8v19.9h-26v40.4c0,8.9,4.9,13.3,12.2,13.3c3.6,0,7.8-1.1,11.2-2.8l6.5,19.7
				c-6.6,2.7-12.2,3.8-19.2,4c-20.3,0.8-33.6-10.8-33.6-34.2v-40.4h-17.5v-19.9h17.5V78.7L2854.9,76.2z"/>
		</g>
		<path fill="#FFFFFF" d="M2095.7,81h-27v-27h27V81z M2042,54.1h-27v27h27V54.1z M2109.2,40.8H2096v13.2h13.2V40.8z M2061.8,21H2042
			v19.8h19.8V21z M2015,27.6h-13.2v13.2h13.2V27.6z M2035.1,0.6h-13.2v13.2h13.2V0.6z M2129.6,20.5h-6.6v6.6h6.6V20.5z M2061.8-6.5
			h-6.6v6.6h6.6V-6.5z M2095.7,13.8h-13.2v13.2h13.2V13.8z M2015,256.2h13.2v-13.2H2015V256.2z M2062.4,276h19.8v-19.8h-19.8V276z
			 M2109.2,269.4h13.2v-13.2h-13.2V269.4z M2092.4,293.1h6.6v-6.6h-6.6V293.1z M1988,276.5h6.6v-6.6h-6.6V276.5z M2062.4,303.5h6.6
			v-6.6h-6.6V303.5z M2028.5,283.2h13.2v-13.2h-13.2V283.2z M1988,81v-27h-27v81h0.1h26.9v-27h27V81H1988z M2150,108v-54h-27.1v27
			h-27v27h-27V81h-27v27h-27v27h13.2v13.2H2015V135h-26.9v27h27v27h-27v-27h-0.1l0,0h-27v54h27V243h27v-0.1v-8.1V216h27v18.9v8.1
			v0.1h27v-0.1v-8.1V216h27v-27h-27v-27h27v-13.2h13.2V162H2096v27h27v27h-27v18.9v8.1v0.1h27.1v-0.1v-27h27v-81h-27v-27H2150z"/>
	</g>
</g>
</svg>
